<svg width="24" height="25" viewBox="0 0 24 25" fill="none" xmlns="http://www.w3.org/2000/svg">
<path d="M12.0043 6.97549C9.02305 6.97549 6.61836 9.38018 6.61836 12.3614C6.61836 15.3427 9.02305 17.7474 12.0043 17.7474C14.9855 17.7474 17.3902 15.3427 17.3902 12.3614C17.3902 9.38018 14.9855 6.97549 12.0043 6.97549ZM12.0043 15.863C10.0777 15.863 8.50273 14.2927 8.50273 12.3614C8.50273 10.4302 10.073 8.85986 12.0043 8.85986C13.9355 8.85986 15.5059 10.4302 15.5059 12.3614C15.5059 14.2927 13.9309 15.863 12.0043 15.863ZM18.8668 6.75518C18.8668 7.45361 18.3043 8.01143 17.6105 8.01143C16.9121 8.01143 16.3543 7.44893 16.3543 6.75518C16.3543 6.06143 16.9168 5.49893 17.6105 5.49893C18.3043 5.49893 18.8668 6.06143 18.8668 6.75518ZM22.434 8.03018C22.3543 6.34736 21.9699 4.85674 20.7371 3.62861C19.509 2.40049 18.0184 2.01611 16.3355 1.93174C14.6012 1.8333 9.40273 1.8333 7.66836 1.93174C5.99023 2.01143 4.49961 2.3958 3.2668 3.62393C2.03398 4.85205 1.6543 6.34268 1.56992 8.02549C1.47148 9.75986 1.47148 14.9583 1.56992 16.6927C1.64961 18.3755 2.03398 19.8661 3.2668 21.0942C4.49961 22.3224 5.98555 22.7067 7.66836 22.7911C9.40273 22.8896 14.6012 22.8896 16.3355 22.7911C18.0184 22.7114 19.509 22.3271 20.7371 21.0942C21.9652 19.8661 22.3496 18.3755 22.434 16.6927C22.5324 14.9583 22.5324 9.76455 22.434 8.03018ZM20.1934 18.5536C19.8277 19.4724 19.1199 20.1802 18.1965 20.5505C16.8137 21.0989 13.5324 20.9724 12.0043 20.9724C10.4762 20.9724 7.19023 21.0942 5.81211 20.5505C4.89336 20.1849 4.18555 19.4771 3.81523 18.5536C3.2668 17.1708 3.39336 13.8896 3.39336 12.3614C3.39336 10.8333 3.27148 7.54736 3.81523 6.16924C4.18086 5.25049 4.88867 4.54268 5.81211 4.17236C7.19492 3.62393 10.4762 3.75049 12.0043 3.75049C13.5324 3.75049 16.8184 3.62861 18.1965 4.17236C19.1152 4.53799 19.823 5.2458 20.1934 6.16924C20.7418 7.55205 20.6152 10.8333 20.6152 12.3614C20.6152 13.8896 20.7418 17.1755 20.1934 18.5536Z" fill="white"/>
</svg>
