<svg width="24" height="25" viewBox="0 0 24 25" fill="none" xmlns="http://www.w3.org/2000/svg">
<path d="M3.75 6.36621C3.75 5.74489 3.96967 5.21456 4.40901 4.77522C4.84835 4.33588 5.37868 4.11621 6 4.11621H8.25C8.87132 4.11621 9.40165 4.33588 9.84099 4.77522C10.2803 5.21456 10.5 5.74489 10.5 6.36621V8.61621C10.5 9.23753 10.2803 9.76786 9.84099 10.2072C9.40165 10.6465 8.87132 10.8662 8.25 10.8662H6C5.37868 10.8662 4.84835 10.6465 4.40901 10.2072C3.96967 9.76786 3.75 9.23753 3.75 8.61621V6.36621ZM3.75 16.1162C3.75 15.4949 3.96967 14.9646 4.40901 14.5252C4.84835 14.0859 5.37868 13.8662 6 13.8662H8.25C8.87132 13.8662 9.40165 14.0859 9.84099 14.5252C10.2803 14.9646 10.5 15.4949 10.5 16.1162V18.3662C10.5 18.9875 10.2803 19.5179 9.84099 19.9572C9.40165 20.3965 8.87132 20.6162 8.25 20.6162H6C5.37868 20.6162 4.84835 20.3965 4.40901 19.9572C3.96967 19.5179 3.75 18.9875 3.75 18.3662V16.1162ZM13.5 6.36621C13.5 5.74489 13.7197 5.21456 14.159 4.77522C14.5983 4.33588 15.1287 4.11621 15.75 4.11621H18C18.6213 4.11621 19.1516 4.33588 19.591 4.77522C20.0303 5.21456 20.25 5.74489 20.25 6.36621V8.61621C20.25 9.23753 20.0303 9.76786 19.591 10.2072C19.1517 10.6465 18.6213 10.8662 18 10.8662H15.75C15.1287 10.8662 14.5983 10.6465 14.159 10.2072C13.7197 9.76786 13.5 9.23753 13.5 8.61621V6.36621ZM13.5 16.1162C13.5 15.4949 13.7197 14.9646 14.159 14.5252C14.5983 14.0859 15.1287 13.8662 15.75 13.8662H18C18.6213 13.8662 19.1516 14.0859 19.591 14.5252C20.0303 14.9646 20.25 15.4949 20.25 16.1162V18.3662C20.25 18.9875 20.0303 19.5179 19.591 19.9572C19.1516 20.3965 18.6213 20.6162 18 20.6162H15.75C15.1287 20.6162 14.5983 20.3965 14.159 19.9572C13.7197 19.5179 13.5 18.9875 13.5 18.3662V16.1162Z" stroke="white" stroke-width="1.5" stroke-linejoin="round"/>
</svg>
