<svg width="24" height="23" viewBox="0 0 24 23" fill="none" xmlns="http://www.w3.org/2000/svg">
<path d="M22.9031 6.48018C22.6414 5.60425 21.8703 4.9144 20.8913 4.68029C19.1167 4.25488 12.0008 4.25488 12.0008 4.25488C12.0008 4.25488 4.88501 4.25488 3.11038 4.68029C2.13134 4.91444 1.36026 5.60425 1.09855 6.48018C0.623047 8.06785 0.623047 11.3804 0.623047 11.3804C0.623047 11.3804 0.623047 14.6929 1.09855 16.2805C1.36026 17.1565 2.13134 17.8176 3.11038 18.0517C4.88501 18.4771 12.0008 18.4771 12.0008 18.4771C12.0008 18.4771 19.1167 18.4771 20.8913 18.0517C21.8703 17.8176 22.6414 17.1565 22.9031 16.2805C23.3786 14.6929 23.3786 11.3804 23.3786 11.3804C23.3786 11.3804 23.3786 8.06785 22.9031 6.48018ZM9.67355 14.3879V8.37285L15.621 11.3804L9.67355 14.3879Z" fill="white"/>
</svg>
