<svg width="21" height="20" viewBox="0 0 21 20" fill="none" xmlns="http://www.w3.org/2000/svg">
<g clip-path="url(#clip0_248_445)">
<path d="M6.74382 16.4929C8.31924 17.4047 10.1725 17.7125 11.958 17.3588C13.7436 17.0051 15.3396 16.0141 16.4484 14.5706C17.5573 13.1271 18.1033 11.3295 17.9847 9.51317C17.8662 7.69679 17.0911 5.98552 15.804 4.69842C14.5169 3.41131 12.8056 2.63622 10.9892 2.51765C9.17284 2.39908 7.37533 2.94512 5.93182 4.05398C4.48831 5.16283 3.49733 6.75882 3.14363 8.54436C2.78993 10.3299 3.09766 12.1832 4.00944 13.7586L3.0321 16.6765C2.99538 16.7867 2.99005 16.9048 3.01671 17.0178C3.04337 17.1308 3.10097 17.2341 3.18306 17.3162C3.26514 17.3983 3.36847 17.4559 3.48145 17.4826C3.59443 17.5092 3.7126 17.5039 3.82273 17.4672L6.74382 16.4929Z" stroke="white" stroke-width="1.5" stroke-linecap="round" stroke-linejoin="round"/>
</g>
<defs>
<clipPath id="clip0_248_445">
<rect width="20" height="20" fill="white" transform="translate(0.5)"/>
</clipPath>
</defs>
</svg>
