<svg width="40" height="44" viewBox="0 0 40 44" fill="none" xmlns="http://www.w3.org/2000/svg">
<path fill-rule="evenodd" clip-rule="evenodd" d="M13.6735 5.41446C13.4612 5.82738 13.2352 6.23291 13.1085 6.6659C12.9025 7.3703 12.4495 7.71035 11.8306 8.04935C6.43518 10.9968 3.40849 15.6002 2.41684 21.6145C2.33764 22.0866 2.30384 22.5724 2.27744 23.0508C2.25104 23.5165 2.27744 23.9822 2.27744 24.4818H0.408203C0.408203 24.355 0.408203 24.2357 0.408203 24.1153C0.408203 15.4672 5.95044 8.11588 13.6809 5.42185L13.6735 5.41446Z" fill="#79C043"/>
<path fill-rule="evenodd" clip-rule="evenodd" d="M17.0462 43.6546C11.7775 42.8098 7.20052 39.8898 4.19284 35.751C4.67863 35.9306 5.12429 36.1101 5.59002 36.2242C6.46233 36.4301 7.34626 36.5832 8.2249 36.7226C10.3201 37.0489 11.7712 38.2001 12.6023 40.1284C12.7026 40.3481 12.822 40.4548 13.048 40.515C13.5475 40.6544 14.0396 40.8275 14.5782 41.0007C14.1061 38.5982 12.3626 36.0436 9.44255 35.299C8.44457 35.0466 7.41279 34.9463 6.40847 34.714C4.64589 34.3011 2.96886 33.509 2.09127 32.0854C1.07955 30.4559 0.793359 28.4462 0.554688 26.4703C1.17249 26.4703 1.77128 26.464 2.37007 26.4703C5.35135 26.5368 8.19111 27.143 10.7859 28.6659C13.8928 30.4887 16.0155 33.0834 16.8266 36.6497C16.9596 37.2485 17.0336 37.8674 17.0399 38.4789C17.0663 40.2024 17.0526 41.9185 17.0526 43.642L17.0462 43.6546Z" fill="#1A6C37"/>
<mask id="mask0_7_297" style="mask-type:luminance" maskUnits="userSpaceOnUse" x="13" y="0" width="14" height="22">
<path d="M13.6113 0H26.5883V21.1066H13.6113V0Z" fill="white"/>
</mask>
<g mask="url(#mask0_7_297)">
<path fill-rule="evenodd" clip-rule="evenodd" d="M23.813 18.2679C22.9808 19.1856 22.0493 20.0241 21.0989 20.9556C21.0851 20.7623 21.0788 20.6694 21.0788 20.5701C21.0714 17.6226 21.0714 14.6751 21.0587 11.7287C21.0587 10.4382 20.706 9.22687 20.1136 8.02295C19.9214 8.70834 19.6415 9.38 19.5612 10.0855C19.4282 11.2228 19.3817 12.3803 19.3754 13.5251C19.349 15.973 19.369 18.4273 19.369 20.889C19.3226 20.889 19.2687 20.9027 19.2486 20.8827C17.9053 19.6186 16.4881 18.4273 15.4436 16.8707C14.0602 14.7955 13.6209 12.5334 14.02 10.0855C14.4657 7.35129 15.8365 5.07547 17.5389 2.97284C18.3446 1.97591 19.2486 1.0508 20.1875 0.00634766C21.1253 1.0508 22.0303 2.00231 22.8614 3.01297C24.2248 4.6636 25.3495 6.46631 26.0011 8.52881C27.166 12.2071 26.3803 15.4534 23.813 18.2742V18.2679Z" fill="#1A6C37"/>
</g>
<mask id="mask1_7_297" style="mask-type:luminance" maskUnits="userSpaceOnUse" x="5" y="17" width="30" height="27">
<path d="M5.5 17.3216H34.9685V44H5.5V17.3216Z" fill="white"/>
</mask>
<g mask="url(#mask1_7_297)">
<path fill-rule="evenodd" clip-rule="evenodd" d="M34.7223 17.3702C34.5829 19.9312 33.7708 22.1331 32.287 24.0889C30.3386 26.6573 27.6509 27.7218 24.3771 27.8675C24.883 27.2423 25.3022 26.6573 25.788 26.1451C26.3403 25.5663 26.9455 25.0341 27.5442 24.4944C28.5285 23.6105 29.234 22.5386 29.6997 21.2417C29.1738 21.4815 28.6288 21.6737 28.1367 21.9599C25.8345 23.2641 24.1448 25.1735 22.887 27.4683C21.6968 29.6375 21.1709 31.9788 21.1772 34.4479C21.1846 37.5939 21.1709 40.741 21.1645 43.8807C20.8446 43.8944 20.5193 43.9081 20.1993 43.9081C19.8804 43.9081 19.5276 43.9007 19.195 43.8807C19.195 40.7272 19.2214 37.5675 19.1886 34.4141C19.1348 29.3312 17.0332 25.3002 12.8881 22.3464C12.2028 21.8606 11.4445 21.5015 10.5532 21.2555C10.8985 22.1267 11.3178 22.8649 11.8902 23.4975C12.4752 24.1354 13.1141 24.7342 13.7594 25.3129C14.5778 26.0521 15.316 26.8495 15.9222 27.7809C14.3455 28.141 11.1784 27.0892 9.45487 25.5589C7.05337 23.4172 5.86952 20.6894 5.66992 17.4367C6.28878 17.4167 6.87384 17.3628 7.45996 17.3765C9.4084 17.4093 11.3252 17.6691 13.1405 18.4474C15.4026 19.419 17.0258 21.0749 18.2033 23.1912C19.0281 24.675 19.5678 26.2707 20.0134 27.9013C20.0599 28.0808 20.0863 28.2667 20.1201 28.4462C20.1391 28.4462 20.1592 28.4536 20.1792 28.46C20.3926 27.7619 20.5922 27.0628 20.8182 26.3711C21.324 24.8081 21.9629 23.3106 22.9134 21.9599C24.6834 19.4454 27.1514 18.0883 30.139 17.6163C31.024 17.4758 31.9216 17.4293 32.813 17.3765C33.4255 17.3427 34.0369 17.3702 34.716 17.3702H34.7223Z" fill="#1A6C37"/>
</g>
<path fill-rule="evenodd" clip-rule="evenodd" d="M39.8591 26.4703C39.6268 28.3998 39.3406 30.3556 38.3764 31.9661C37.3847 33.6157 35.4352 34.4943 33.2861 34.8798C32.342 35.053 31.3641 35.1597 30.459 35.4723C28.0512 36.2907 26.6604 38.0998 25.8958 40.4548C25.8419 40.6142 25.8092 40.7811 25.7627 40.987C26.3678 40.8138 26.9328 40.6607 27.4852 40.4812C27.5918 40.4484 27.6848 40.3154 27.7312 40.2024C28.5835 38.1462 30.1401 37.0289 32.3283 36.729C33.6526 36.5494 34.9632 36.3234 36.2009 35.7711C33.1805 39.9099 28.5898 42.8362 23.3074 43.6684V43.2755C23.3074 41.7252 23.2809 40.1686 23.3211 38.6119C23.3876 36.0573 24.2916 33.8026 25.9021 31.833C28.4166 28.7525 31.7496 27.1758 35.6285 26.6974C36.9792 26.5305 38.3489 26.5369 39.7134 26.4703C39.7598 26.4703 39.8063 26.4703 39.8591 26.4703Z" fill="#1A6C37"/>
<path fill-rule="evenodd" clip-rule="evenodd" d="M39.9919 24.1153C39.9919 24.242 39.9919 24.3687 39.9919 24.4944H38.1163C38.0962 24.0023 38.0825 23.5239 38.0498 23.0444C37.6442 17.3163 35.1224 12.7393 30.5316 9.31345C29.7406 8.72839 28.8419 8.28167 27.9844 7.79694C27.7447 7.66388 27.6053 7.51075 27.5049 7.25729C27.2652 6.65216 26.9927 6.05337 26.7129 5.42184C34.4507 8.11587 39.9993 15.4672 39.9993 24.1227L39.9919 24.1153Z" fill="#79C043"/>
</svg>
