<svg width="44" height="44" viewBox="0 0 44 44" fill="none" xmlns="http://www.w3.org/2000/svg">
<g clip-path="url(#clip0_467_3653)">
<path d="M23.375 37.125V5.50003C23.3749 5.25118 23.3072 5.00704 23.1792 4.79363C23.0512 4.58023 22.8677 4.40556 22.6482 4.28824C22.4288 4.17093 22.1816 4.11537 21.933 4.12749C21.6845 4.13961 21.4439 4.21895 21.2369 4.35706L7.48688 13.5232C7.29828 13.649 7.14372 13.8195 7.03697 14.0195C6.93021 14.2195 6.87457 14.4428 6.875 14.6696V37.125" stroke="white" stroke-width="2" stroke-linecap="round" stroke-linejoin="round"/>
<path d="M23.375 15.125H35.75C36.1147 15.125 36.4644 15.2699 36.7223 15.5277C36.9801 15.7856 37.125 16.1353 37.125 16.5V37.125" stroke="white" stroke-width="2" stroke-linecap="round" stroke-linejoin="round"/>
<path d="M2.75 37.125H41.25" stroke="white" stroke-width="2" stroke-linecap="round" stroke-linejoin="round"/>
<path d="M17.875 19.25V22" stroke="white" stroke-width="2" stroke-linecap="round" stroke-linejoin="round"/>
<path d="M12.375 19.25V22" stroke="white" stroke-width="2" stroke-linecap="round" stroke-linejoin="round"/>
<path d="M12.375 28.875V31.625" stroke="white" stroke-width="2" stroke-linecap="round" stroke-linejoin="round"/>
<path d="M17.875 28.875V31.625" stroke="white" stroke-width="2" stroke-linecap="round" stroke-linejoin="round"/>
</g>
<defs>
<clipPath id="clip0_467_3653">
<rect width="44" height="44" fill="white"/>
</clipPath>
</defs>
</svg>
