<svg width="24" height="25" viewBox="0 0 24 25" fill="none" xmlns="http://www.w3.org/2000/svg">
<path d="M21 1.86621H2.99531C2.17031 1.86621 1.5 2.5459 1.5 3.38027V21.3521C1.5 22.1865 2.17031 22.8662 2.99531 22.8662H21C21.825 22.8662 22.5 22.1865 22.5 21.3521V3.38027C22.5 2.5459 21.825 1.86621 21 1.86621ZM7.84687 19.8662H4.73438V9.84434H7.85156V19.8662H7.84687ZM6.29062 8.47559C5.29219 8.47559 4.48594 7.66465 4.48594 6.6709C4.48594 5.67715 5.29219 4.86621 6.29062 4.86621C7.28437 4.86621 8.09531 5.67715 8.09531 6.6709C8.09531 7.66934 7.28906 8.47559 6.29062 8.47559ZM19.5141 19.8662H16.4016V14.9912C16.4016 13.8287 16.3781 12.3334 14.7844 12.3334C13.1625 12.3334 12.9141 13.599 12.9141 14.9068V19.8662H9.80156V9.84434H12.7875V11.2131H12.8297C13.2469 10.4256 14.2641 9.5959 15.7781 9.5959C18.9281 9.5959 19.5141 11.6725 19.5141 14.3725V19.8662Z" fill="white"/>
</svg>
