<svg width="32" height="32" viewBox="0 0 32 32" fill="none" xmlns="http://www.w3.org/2000/svg">
<path d="M15.998 3.52002C16.4189 3.52002 17.0556 3.84981 17.6348 5.01416L17.6357 5.01514L19.9795 9.70264V9.70361C20.2068 10.1676 20.5947 10.5738 21.0049 10.8765C21.4155 11.1794 21.9166 11.4287 22.4229 11.5132H22.4238L26.6768 12.2202C27.9072 12.4253 28.4097 12.9278 28.541 13.3364C28.6717 13.7434 28.5569 14.4408 27.6709 15.3208L27.6699 15.3228L24.3633 18.6294C23.9709 19.0218 23.7009 19.556 23.5508 20.0806C23.4006 20.6054 23.3472 21.1996 23.4678 21.7378L23.4688 21.7427L24.416 25.8354C24.7746 27.3919 24.4461 28.0877 24.1396 28.311C23.8317 28.5353 23.065 28.6345 21.6875 27.8208L17.7021 25.4614C17.1982 25.1628 16.5807 25.0366 16.0049 25.0366C15.4284 25.0366 14.8104 25.1631 14.3027 25.4585L14.2979 25.4614L10.3115 27.8218H10.3105C8.94318 28.6333 8.17589 28.5327 7.86523 28.3062C7.55524 28.08 7.22623 27.3815 7.58398 25.8354L8.53027 21.7427L8.53125 21.7378C8.65187 21.1997 8.59943 20.6054 8.44922 20.0806C8.29905 19.556 8.02911 19.0218 7.63672 18.6294L4.33008 15.3228C3.44993 14.4425 3.33336 13.7432 3.46387 13.3345C3.59425 12.9265 4.09354 12.4252 5.32324 12.2202L9.57617 11.5132H9.5791C10.0795 11.4282 10.5777 11.1777 10.9854 10.8755C11.3928 10.5733 11.7788 10.1663 12.0059 9.70264L14.3496 5.01709C14.9353 3.85174 15.5758 3.52011 15.998 3.52002Z" fill="#FABF35" stroke="#FABF35" stroke-width="1.5" stroke-linecap="round" stroke-linejoin="round"/>
</svg>
