<svg width="18" height="18" viewBox="0 0 18 18" fill="none" xmlns="http://www.w3.org/2000/svg">
<path d="M9.03398 0.666671C4.48398 0.666671 0.775651 4.375 0.775651 8.925C0.775651 10.3833 1.15898 11.8 1.87565 13.05L0.708984 17.3333L5.08398 16.1833C6.29232 16.8417 7.65065 17.1917 9.03398 17.1917C13.584 17.1917 17.2923 13.4833 17.2923 8.93334C17.2923 6.725 16.434 4.65 14.8757 3.09167C14.1115 2.32009 13.2015 1.70831 12.1986 1.29197C11.1956 0.875636 10.1199 0.663073 9.03398 0.666671ZM9.04232 2.05834C10.8757 2.05834 12.5923 2.775 13.8923 4.075C14.5301 4.71294 15.0358 5.47043 15.3805 6.3041C15.7251 7.13777 15.9019 8.03125 15.9007 8.93334C15.9007 12.7167 12.8173 15.7917 9.03398 15.7917C7.80065 15.7917 6.59232 15.4667 5.54232 14.8333L5.29232 14.6917L2.69232 15.375L3.38398 12.8417L3.21732 12.575C2.52944 11.482 2.16538 10.2164 2.16732 8.925C2.17565 5.14167 5.25065 2.05834 9.04232 2.05834ZM6.10898 5.10834C5.97565 5.10834 5.75065 5.15834 5.55898 5.36667C5.37565 5.575 4.83398 6.08334 4.83398 7.09167C4.83398 8.10834 5.57565 9.08334 5.66732 9.22501C5.78398 9.36667 7.13398 11.45 9.20898 12.3333C9.70065 12.5583 10.084 12.6833 10.384 12.775C10.8757 12.9333 11.3257 12.9083 11.684 12.8583C12.084 12.8 12.9007 12.3583 13.0757 11.875C13.2507 11.3917 13.2507 10.9833 13.2007 10.8917C13.1423 10.8083 13.009 10.7583 12.8007 10.6667C12.5923 10.55 11.5757 10.05 11.3923 9.98334C11.2007 9.91667 11.084 9.88334 10.9257 10.0833C10.7923 10.2917 10.3923 10.7583 10.2757 10.8917C10.1507 11.0333 10.034 11.05 9.83398 10.95C9.61732 10.8417 8.95065 10.625 8.16732 9.925C7.55065 9.375 7.14232 8.70001 7.01732 8.49167C6.91732 8.29167 7.00898 8.16667 7.10898 8.07501C7.20065 7.98334 7.33398 7.83334 7.41732 7.70834C7.52565 7.59167 7.55898 7.5 7.62565 7.36667C7.69232 7.225 7.65898 7.10834 7.60898 7.00834C7.55898 6.91667 7.14232 5.88334 6.96732 5.475C6.80065 5.075 6.63398 5.125 6.50065 5.11667C6.38398 5.11667 6.25065 5.10834 6.10898 5.10834Z" fill="#1A6C37"/>
</svg>
