<svg width="44" height="44" viewBox="0 0 44 44" fill="none" xmlns="http://www.w3.org/2000/svg">
<g clip-path="url(#clip0_567_3844)">
<path d="M25.4552 10.6321L12.3927 2.94073C12.2368 2.84781 12.0641 2.78667 11.8844 2.76083C11.7048 2.735 11.5218 2.74497 11.3461 2.79019C11.1703 2.83541 11.0052 2.91497 10.8604 3.02429C10.7155 3.13361 10.5937 3.27052 10.5021 3.42714L8.43956 6.92308C8.34671 7.07907 8.28567 7.2519 8.25996 7.4316C8.23424 7.6113 8.24437 7.79431 8.28975 7.97008C8.33513 8.14585 8.41487 8.31089 8.52436 8.45568C8.63385 8.60047 8.77092 8.72215 8.92768 8.8137L35.0699 24.2C35.2266 24.2915 35.3637 24.4132 35.4732 24.558C35.5827 24.7028 35.6624 24.8678 35.7078 25.0436C35.7532 25.2193 35.7633 25.4024 35.7376 25.5821C35.7119 25.7618 35.6508 25.9346 35.558 26.0906L33.4955 29.5865C33.4038 29.7431 33.282 29.88 33.1372 29.9894C32.9923 30.0987 32.8272 30.1782 32.6515 30.2235C32.4757 30.2687 32.2928 30.2787 32.1131 30.2528C31.9335 30.227 31.7608 30.1658 31.6049 30.0729L18.5424 22.3815" stroke="#1A6C37" stroke-width="2" stroke-linecap="round" stroke-linejoin="round"/>
<path d="M16.1314 13.0453L8.44 26.1078C8.34708 26.2636 8.28594 26.4364 8.2601 26.616C8.23426 26.7956 8.24424 26.9786 8.28946 27.1544C8.33468 27.3301 8.41424 27.4952 8.52356 27.6401C8.63288 27.7849 8.76979 27.9067 8.92641 27.9984L12.4223 30.0609C12.5783 30.1537 12.7512 30.2148 12.9309 30.2405C13.1106 30.2662 13.2936 30.2561 13.4693 30.2107C13.6451 30.1653 13.8102 30.0856 13.9549 29.9761C14.0997 29.8666 14.2214 29.7295 14.313 29.5728L29.6923 3.43745C29.7839 3.28069 29.9056 3.14361 30.0504 3.03412C30.1952 2.92463 30.3602 2.8449 30.536 2.79952C30.7117 2.75414 30.8947 2.74401 31.0744 2.76972C31.2541 2.79543 31.427 2.85647 31.583 2.94932L35.0789 5.01182C35.2355 5.10351 35.3724 5.22529 35.4818 5.37015C35.5911 5.51501 35.6706 5.68008 35.7159 5.85583C35.7611 6.03159 35.7711 6.21456 35.7452 6.39419C35.7194 6.57382 35.6582 6.74656 35.5653 6.90245L27.8739 19.9649" stroke="#1A6C37" stroke-width="2" stroke-linecap="round" stroke-linejoin="round"/>
<path d="M5.5 39.875H38.5" stroke="#1A6C37" stroke-width="2" stroke-linecap="round" stroke-linejoin="round"/>
<path d="M28.5938 28.282L30.2506 39.875" stroke="#1A6C37" stroke-width="2" stroke-linecap="round" stroke-linejoin="round"/>
<path d="M15.5152 27.5189L13.75 39.875" stroke="#1A6C37" stroke-width="2" stroke-linecap="round" stroke-linejoin="round"/>
</g>
<defs>
<clipPath id="clip0_567_3844">
<rect width="44" height="44" fill="white"/>
</clipPath>
</defs>
</svg>
