<svg width="32" height="33" viewBox="0 0 32 33" fill="none" xmlns="http://www.w3.org/2000/svg">
<g clip-path="url(#clip0_528_537)">
<path d="M16 17.5C18.2091 17.5 20 15.7091 20 13.5C20 11.2909 18.2091 9.5 16 9.5C13.7909 9.5 12 11.2909 12 13.5C12 15.7091 13.7909 17.5 16 17.5Z" stroke="#B49C5C" stroke-width="1.5" stroke-linecap="round" stroke-linejoin="round"/>
<path d="M26 13.5C26 22.5 16 29.5 16 29.5C16 29.5 6 22.5 6 13.5C6 10.8478 7.05357 8.3043 8.92893 6.42893C10.8043 4.55357 13.3478 3.5 16 3.5C18.6522 3.5 21.1957 4.55357 23.0711 6.42893C24.9464 8.3043 26 10.8478 26 13.5Z" stroke="#B49C5C" stroke-width="1.5" stroke-linecap="round" stroke-linejoin="round"/>
</g>
<defs>
<clipPath id="clip0_528_537">
<rect width="32" height="32" fill="white" transform="translate(0 0.5)"/>
</clipPath>
</defs>
</svg>
