<svg width="32" height="32" viewBox="0 0 32 32" fill="none" xmlns="http://www.w3.org/2000/svg">
<g clip-path="url(#clip0_336_2415)">
<path d="M13.5 18.5L20 12" stroke="white" stroke-width="1.5" stroke-linecap="round" stroke-linejoin="round"/>
<path d="M27.9621 5.27221C28.0103 5.10116 28.0121 4.92034 27.9672 4.74838C27.9223 4.57642 27.8324 4.41954 27.7067 4.29387C27.5811 4.1682 27.4242 4.0783 27.2522 4.0334C27.0803 3.98851 26.8994 3.99026 26.7284 4.03846L2.72839 11.316C2.53245 11.3713 2.35805 11.4851 2.22852 11.6421C2.09898 11.7992 2.02047 11.9921 2.00349 12.1949C1.9865 12.3978 2.03185 12.6011 2.13346 12.7775C2.23508 12.9539 2.38812 13.0951 2.57214 13.1822L13.5009 18.4997L18.8184 29.4272C18.9055 29.6112 19.0467 29.7643 19.2231 29.8659C19.3995 29.9675 19.6028 30.0129 19.8057 29.9959C20.0085 29.9789 20.2014 29.9004 20.3585 29.7708C20.5155 29.6413 20.6293 29.4669 20.6846 29.271L27.9621 5.27221Z" stroke="white" stroke-width="1.5" stroke-linecap="round" stroke-linejoin="round"/>
</g>
<defs>
<clipPath id="clip0_336_2415">
<rect width="32" height="32" fill="white"/>
</clipPath>
</defs>
</svg>
