<svg width="49" height="48" viewBox="0 0 49 48" fill="none" xmlns="http://www.w3.org/2000/svg">
<g clip-path="url(#clip0_401_52)">
<path d="M26 40.5001V6.00008C25.9998 5.72861 25.926 5.46227 25.7864 5.22946C25.6468 4.99666 25.4466 4.8061 25.2072 4.67813C24.9677 4.55015 24.6981 4.48954 24.4269 4.50276C24.1558 4.51598 23.8933 4.60254 23.6675 4.7532L8.6675 14.7526C8.46176 14.8898 8.29315 15.0759 8.17669 15.2941C8.06023 15.5123 7.99953 15.7559 8 16.0032V40.5001" stroke="#B49C5C" stroke-width="2" stroke-linecap="round" stroke-linejoin="round"/>
<path d="M26 16.5H39.5C39.8978 16.5 40.2794 16.658 40.5607 16.9393C40.842 17.2206 41 17.6022 41 18V40.5" stroke="#B49C5C" stroke-width="2" stroke-linecap="round" stroke-linejoin="round"/>
<path d="M3.5 40.5H45.5" stroke="#B49C5C" stroke-width="2" stroke-linecap="round" stroke-linejoin="round"/>
<path d="M20 21V24" stroke="#B49C5C" stroke-width="2" stroke-linecap="round" stroke-linejoin="round"/>
<path d="M14 21V24" stroke="#B49C5C" stroke-width="2" stroke-linecap="round" stroke-linejoin="round"/>
<path d="M14 31.5V34.5" stroke="#B49C5C" stroke-width="2" stroke-linecap="round" stroke-linejoin="round"/>
<path d="M20 31.5V34.5" stroke="#B49C5C" stroke-width="2" stroke-linecap="round" stroke-linejoin="round"/>
</g>
<defs>
<clipPath id="clip0_401_52">
<rect width="48" height="48" fill="white" transform="translate(0.5)"/>
</clipPath>
</defs>
</svg>
