<svg width="20" height="20" viewBox="0 0 20 20" fill="none" xmlns="http://www.w3.org/2000/svg">
<g clip-path="url(#clip0_186_7881)">
<path d="M18.3048 8.97268L14.7892 12.0063L15.8603 16.543C15.9194 16.7893 15.9042 17.0475 15.8166 17.2852C15.729 17.5228 15.5729 17.7291 15.3681 17.8781C15.1632 18.0271 14.9189 18.112 14.6658 18.1222C14.4127 18.1323 14.1623 18.0673 13.9462 17.9352L10.0009 15.5071L6.05327 17.9352C5.8372 18.0665 5.5871 18.131 5.33447 18.1204C5.08184 18.1099 4.83798 18.0249 4.63359 17.876C4.42919 17.7272 4.27341 17.5212 4.18585 17.284C4.0983 17.0467 4.08288 16.7889 4.14155 16.543L5.21655 12.0063L1.70093 8.97268C1.50975 8.80746 1.37149 8.58957 1.30341 8.34623C1.23533 8.1029 1.24045 7.8449 1.31813 7.60445C1.3958 7.36401 1.54259 7.15178 1.74017 6.99426C1.93774 6.83675 2.17735 6.74093 2.42905 6.71878L7.03843 6.3469L8.81655 2.04378C8.9128 1.80926 9.07661 1.60866 9.28716 1.46748C9.4977 1.3263 9.74548 1.25092 9.99897 1.25092C10.2525 1.25092 10.5002 1.3263 10.7108 1.46748C10.9213 1.60866 11.0852 1.80926 11.1814 2.04378L12.9587 6.3469L17.5681 6.71878C17.8203 6.74011 18.0606 6.83539 18.2589 6.99269C18.4572 7.14998 18.6047 7.3623 18.6828 7.60304C18.761 7.84377 18.7664 8.10222 18.6983 8.346C18.6302 8.58978 18.4917 8.80805 18.3001 8.97346L18.3048 8.97268Z" fill="#B49C5C"/>
</g>
<defs>
<clipPath id="clip0_186_7881">
<rect width="20" height="20" fill="white"/>
</clipPath>
</defs>
</svg>
