<svg width="32" height="33" viewBox="0 0 32 33" fill="none" xmlns="http://www.w3.org/2000/svg">
<g clip-path="url(#clip0_528_2305)">
<path d="M9.99206 26.8889C12.5127 28.3478 15.4779 28.8401 18.3348 28.2742C21.1917 27.7083 23.7452 26.1227 25.5194 23.8131C27.2936 21.5035 28.1673 18.6275 27.9775 15.7213C27.7878 12.8151 26.5477 10.077 24.4883 8.01766C22.4289 5.95829 19.6909 4.71814 16.7847 4.52843C13.8785 4.33872 11.0025 5.21239 8.69287 6.98656C6.38325 8.76073 4.79768 11.3143 4.23176 14.1712C3.66584 17.0281 4.15821 19.9932 5.61706 22.5139L4.05331 27.1827C3.99455 27.3589 3.98603 27.5479 4.02869 27.7287C4.07135 27.9095 4.16351 28.0748 4.29485 28.2061C4.42618 28.3375 4.5915 28.4296 4.77227 28.4723C4.95304 28.5149 5.14212 28.5064 5.31831 28.4477L9.99206 26.8889Z" stroke="#1F53BB" stroke-width="1.5" stroke-linecap="round" stroke-linejoin="round"/>
</g>
<defs>
<clipPath id="clip0_528_2305">
<rect width="32" height="32" fill="white" transform="translate(0 0.5)"/>
</clipPath>
</defs>
</svg>
