<svg width="32" height="33" viewBox="0 0 32 33" fill="none" xmlns="http://www.w3.org/2000/svg">
<g clip-path="url(#clip0_528_1752)">
<path d="M4.08789 10.1152L16.0004 16.6352L27.9129 10.1152" stroke="#1A6C37" stroke-width="1.5" stroke-linecap="round" stroke-linejoin="round"/>
<path d="M16.48 3.62468L27.48 9.64718C27.6371 9.73312 27.7682 9.85966 27.8597 10.0136C27.9511 10.1675 27.9996 10.3431 28 10.5222V22.4772C27.9996 22.6562 27.9511 22.8319 27.8597 22.9858C27.7682 23.1397 27.6371 23.2662 27.48 23.3522L16.48 29.3747C16.3328 29.4552 16.1678 29.4974 16 29.4974C15.8322 29.4974 15.6672 29.4552 15.52 29.3747L4.52 23.3522C4.36293 23.2662 4.23181 23.1397 4.14035 22.9858C4.04888 22.8319 4.00041 22.6562 4 22.4772V10.5222C4.00041 10.3431 4.04888 10.1675 4.14035 10.0136C4.23181 9.85966 4.36293 9.73312 4.52 9.64718L15.52 3.62468C15.6672 3.54416 15.8322 3.50195 16 3.50195C16.1678 3.50195 16.3328 3.54416 16.48 3.62468Z" stroke="#1A6C37" stroke-width="1.5" stroke-linecap="round" stroke-linejoin="round"/>
<path d="M16 16.6367V29.5005" stroke="#1A6C37" stroke-width="1.5" stroke-linecap="round" stroke-linejoin="round"/>
</g>
<defs>
<clipPath id="clip0_528_1752">
<rect width="32" height="32" fill="white" transform="translate(0 0.5)"/>
</clipPath>
</defs>
</svg>
