<svg width="49" height="48" viewBox="0 0 49 48" fill="none" xmlns="http://www.w3.org/2000/svg">
<g clip-path="url(#clip0_373_2502)">
<path d="M42.5 24H36.5C35.7044 24 34.9413 24.3161 34.3787 24.8787C33.8161 25.4413 33.5 26.2044 33.5 27V34.5C33.5 35.2956 33.8161 36.0587 34.3787 36.6213C34.9413 37.1839 35.7044 37.5 36.5 37.5H39.5C40.2956 37.5 41.0587 37.1839 41.6213 36.6213C42.1839 36.0587 42.5 35.2956 42.5 34.5V24ZM42.5 24C42.5 21.6362 42.0344 19.2956 41.1298 17.1117C40.2252 14.9278 38.8994 12.9435 37.2279 11.2721C35.5565 9.60062 33.5722 8.27475 31.3883 7.37017C29.2044 6.46558 26.8638 6 24.5 6C22.1362 6 19.7956 6.46558 17.6117 7.37017C15.4278 8.27475 13.4435 9.60062 11.7721 11.2721C10.1006 12.9435 8.77475 14.9278 7.87017 17.1117C6.96558 19.2956 6.5 21.6362 6.5 24M6.5 24V34.5C6.5 35.2956 6.81607 36.0587 7.37868 36.6213C7.94129 37.1839 8.70435 37.5 9.5 37.5H12.5C13.2956 37.5 14.0587 37.1839 14.6213 36.6213C15.1839 36.0587 15.5 35.2956 15.5 34.5V27C15.5 26.2044 15.1839 25.4413 14.6213 24.8787C14.0587 24.3161 13.2956 24 12.5 24H6.5Z" stroke="white" stroke-width="1.5" stroke-linecap="round" stroke-linejoin="round"/>
</g>
<defs>
<clipPath id="clip0_373_2502">
<rect width="48" height="48" fill="white" transform="translate(0.5)"/>
</clipPath>
</defs>
</svg>
