<svg width="21" height="20" viewBox="0 0 21 20" fill="none" xmlns="http://www.w3.org/2000/svg">
<g clip-path="url(#clip0_528_487)">
<path d="M8.16797 16.8751H4.41797C4.25221 16.8751 4.09324 16.8093 3.97603 16.692C3.85882 16.5748 3.79297 16.4159 3.79297 16.2501V12.7587C3.79305 12.5932 3.85879 12.4344 3.97578 12.3173L13.6102 2.68291C13.7274 2.56579 13.8863 2.5 14.052 2.5C14.2176 2.5 14.3766 2.56579 14.4938 2.68291L17.9852 6.17198C18.1023 6.28917 18.1681 6.44808 18.1681 6.61377C18.1681 6.77946 18.1023 6.93837 17.9852 7.05557L8.16797 16.8751Z" stroke="white" stroke-width="1.5" stroke-linecap="round" stroke-linejoin="round"/>
<path d="M17.543 16.875H8.16797" stroke="white" stroke-width="1.5" stroke-linecap="round" stroke-linejoin="round"/>
<path d="M11.293 5L15.668 9.375" stroke="white" stroke-width="1.5" stroke-linecap="round" stroke-linejoin="round"/>
</g>
<defs>
<clipPath id="clip0_528_487">
<rect width="20" height="20" fill="white" transform="translate(0.667969)"/>
</clipPath>
</defs>
</svg>
