<svg width="20" height="20" viewBox="0 0 20 20" fill="none" xmlns="http://www.w3.org/2000/svg">
<g clip-path="url(#clip0_170_6823)">
<path d="M6.24382 16.4929C7.81924 17.4047 9.67248 17.7125 11.458 17.3588C13.2436 17.0051 14.8396 16.0141 15.9484 14.5706C17.0573 13.1271 17.6033 11.3295 17.4847 9.51317C17.3662 7.69679 16.5911 5.98552 15.304 4.69842C14.0169 3.41131 12.3056 2.63622 10.4892 2.51765C8.67284 2.39908 6.87533 2.94512 5.43182 4.05398C3.98831 5.16283 2.99733 6.75882 2.64363 8.54436C2.28993 10.3299 2.59766 12.1832 3.50944 13.7586L2.5321 16.6765C2.49538 16.7867 2.49005 16.9048 2.51671 17.0178C2.54337 17.1308 2.60097 17.2341 2.68306 17.3162C2.76514 17.3983 2.86847 17.4559 2.98145 17.4826C3.09443 17.5092 3.2126 17.5039 3.32273 17.4672L6.24382 16.4929Z" stroke="#1A6C37" stroke-width="1.5" stroke-linecap="round" stroke-linejoin="round"/>
</g>
<defs>
<clipPath id="clip0_170_6823">
<rect width="20" height="20" fill="white"/>
</clipPath>
</defs>
</svg>
