<svg width="20" height="21" viewBox="0 0 20 21" fill="none" xmlns="http://www.w3.org/2000/svg">
<g clip-path="url(#clip0_170_6486)">
<path d="M6.5625 13C8.80616 13 10.625 11.1812 10.625 8.9375C10.625 6.69384 8.80616 4.875 6.5625 4.875C4.31884 4.875 2.5 6.69384 2.5 8.9375C2.5 11.1812 4.31884 13 6.5625 13Z" stroke="#1A6C37" stroke-width="1.5" stroke-linecap="round" stroke-linejoin="round"/>
<path d="M0.798828 16.125C1.42312 15.1651 2.27726 14.3764 3.28372 13.8304C4.29018 13.2843 5.41708 12.9984 6.56211 12.9984C7.70714 12.9984 8.83404 13.2843 9.8405 13.8304C10.847 14.3764 11.7011 15.1651 12.3254 16.125" stroke="#1A6C37" stroke-width="1.5" stroke-linecap="round" stroke-linejoin="round"/>
<path d="M13.4375 13C14.5825 12.9993 15.7095 13.2849 16.716 13.8306C17.7225 14.3764 18.5767 15.1651 19.2008 16.125" stroke="#1A6C37" stroke-width="1.5" stroke-linecap="round" stroke-linejoin="round"/>
<path d="M11.9297 5.16406C12.4854 4.94242 13.0832 4.84625 13.6804 4.88244C14.2776 4.91862 14.8594 5.08626 15.3843 5.37338C15.9092 5.66051 16.3642 6.06002 16.7168 6.54337C17.0694 7.02672 17.3108 7.58198 17.4239 8.16948C17.537 8.75698 17.519 9.36221 17.3711 9.94192C17.2232 10.5216 16.949 11.0615 16.5682 11.523C16.1875 11.9845 15.7095 12.3562 15.1684 12.6115C14.6274 12.8668 14.0366 12.9995 13.4383 13" stroke="#1A6C37" stroke-width="1.5" stroke-linecap="round" stroke-linejoin="round"/>
</g>
<defs>
<clipPath id="clip0_170_6486">
<rect width="20" height="20" fill="white" transform="translate(0 0.5)"/>
</clipPath>
</defs>
</svg>
